<svg id="Layer_1" enable-background="new 0 0 512 512" height="512" viewBox="0 0 512 512" width="512" xmlns="http://www.w3.org/2000/svg"><path d="m256 512c-68.38 0-132.667-26.629-181.02-74.98-48.351-48.353-74.98-112.64-74.98-181.02s26.629-132.667 74.98-181.02c48.353-48.351 112.64-74.98 181.02-74.98s132.667 26.629 181.02 74.98c48.351 48.353 74.98 112.64 74.98 181.02s-26.629 132.667-74.98 181.02c-48.353 48.351-112.64 74.98-181.02 74.98zm0-472c-119.103 0-216 96.897-216 216s96.897 216 216 216 216-96.897 216-216-96.897-216-216-216zm-1 393c-20.498 0-37.783-11.54-48.67-32.495-7.095-13.653-11.33-31.412-11.33-47.505 0-16.321 4.033-34.015 10.789-47.332 10.686-21.066 28.163-32.668 49.211-32.668s38.525 11.602 49.211 32.668c6.756 13.317 10.789 31.011 10.789 47.332 0 16.093-4.235 33.852-11.33 47.505-10.887 20.955-28.172 32.495-48.67 32.495zm0-120c-14.133 0-20 26.052-20 40 0 13.959 6.869 40 20 40s20-26.041 20-40c0-13.948-5.867-40-20-40zm-87-53c-33.084 0-60-26.916-60-60s26.916-60 60-60 60 26.916 60 60-26.916 60-60 60zm0-80c-11.028 0-20 8.972-20 20s8.972 20 20 20 20-8.972 20-20-8.972-20-20-20zm176 80c-33.084 0-60-26.916-60-60s26.916-60 60-60 60 26.916 60 60-26.916 60-60 60zm0-80c-11.028 0-20 8.972-20 20s8.972 20 20 20 20-8.972 20-20-8.972-20-20-20z"/></svg>