<svg id="Layer_1" enable-background="new 0 0 512 512" height="512" viewBox="0 0 512 512" width="512" xmlns="http://www.w3.org/2000/svg"><path d="m322.179 365.819c-.252-.388-25.727-38.819-67.179-38.819-25.456 0-44.806 14.205-56.556 26.12-4.801 4.868-7.444 11.323-7.444 18.177v79.913c0 16.276-6.692 32.176-18.36 43.623-11.311 11.096-27.052 17.167-42.64 17.167-29 0-51.183-22.763-53.563-25.291-3.961-3.654-6.437-8.894-6.437-14.709 0-11.046 8.954-20 20-20 6.249 0 11.804 2.707 15.472 7.196 3.379 3.491 14.479 12.597 25.131 12.801 5.172.085 10.167-1.932 14.024-5.717 4.051-3.973 6.373-9.466 6.373-15.069v-79.913c0-17.435 6.734-33.865 18.964-46.264 17.109-17.35 45.751-38.034 85.036-38.034 63.7 0 99.385 54.924 100.873 57.262l-.014.009c1.979 3.102 3.141 6.776 3.141 10.729 0 11.046-8.954 20-20 20-7.093 0-13.309-3.703-16.859-9.271l-.014.009zm-66.178 79.181c-.016 0-.031 0-.047 0-11.045.025-19.979 9-19.954 20.045l.062 27c.025 11.03 8.975 19.955 19.999 19.955h.047c11.045-.025 19.979-9 19.954-20.045l-.062-27c-.025-11.031-8.974-19.955-19.999-19.955zm181.019-370.02c-48.353-48.351-112.64-74.98-181.02-74.98s-132.667 26.629-181.019 74.98c-48.352 48.353-74.981 112.64-74.981 181.02 0 29.177 4.977 57.89 14.791 85.341 9.406 26.31 23.034 50.885 40.504 73.042 3.946 5.006 9.804 7.618 15.719 7.618 4.335 0 8.701-1.403 12.369-4.295 8.674-6.839 10.162-19.415 3.322-28.088-30.554-38.755-46.705-84.958-46.705-133.618 0-119.103 96.897-216 216-216s216 96.897 216 216c0 48.174-15.508 93.745-44.847 131.786-6.746 8.747-5.124 21.306 3.623 28.051 8.745 6.746 21.306 5.123 28.051-3.623 34.787-45.103 53.173-99.121 53.173-156.214 0-68.38-26.629-132.667-74.98-181.02zm-32.514 384.302c-2.531 2.687-14.27 12.718-25.444 12.718-11.028 0-20-8.972-20-20.031l-.026-17c-.018-11.035-8.968-19.969-20-19.969-.011 0-.021 0-.032 0-11.046.017-19.986 8.985-19.969 20.031l.026 16.97c0 33.084 26.916 60 60 60 29.861 0 52.114-22.695 54.554-25.283 7.575-8.038 7.201-20.696-.837-28.272-8.037-7.576-20.696-7.201-28.272.836zm-29.973-229.985c2.373-10.788-4.448-21.457-15.235-23.83-10.727-2.36-21.7-7.133-32.617-14.188-1.406-.908-1.689-2.262-1.681-3.238.01-.968.316-2.305 1.724-3.176 10.124-6.268 21.453-11.182 33.675-14.608 10.636-2.981 16.841-14.02 13.859-24.656-2.981-10.635-14.019-16.841-24.656-13.86-15.836 4.439-30.617 10.87-43.934 19.114-12.794 7.921-20.52 21.678-20.666 36.799-.146 15.132 7.319 29.046 19.97 37.221 14.94 9.654 30.326 16.267 45.73 19.656 1.448.319 2.893.472 4.316.472 9.186.001 17.46-6.366 19.515-15.706zm-217.551 15.707c-9.186 0-17.459-6.366-19.515-15.707-2.373-10.788 4.448-21.457 15.235-23.83 10.727-2.36 21.7-7.133 32.617-14.188 1.406-.908 1.689-2.262 1.681-3.238-.01-.968-.316-2.305-1.725-3.176-10.123-6.268-21.452-11.182-33.674-14.608-10.636-2.981-16.841-14.02-13.859-24.656 2.982-10.635 14.021-16.839 24.656-13.86 15.836 4.439 30.617 10.87 43.933 19.114 12.795 7.921 20.521 21.678 20.667 36.799.146 15.132-7.319 29.046-19.97 37.221-14.94 9.654-30.326 16.267-45.73 19.656-1.447.32-2.893.473-4.316.473z"/></svg>