<svg id="Layer_1" enable-background="new 0 0 512 512" height="512" viewBox="0 0 512 512" width="512" xmlns="http://www.w3.org/2000/svg"><path d="m256 512c-68.38 0-132.667-26.629-181.02-74.98-48.351-48.353-74.98-112.64-74.98-181.02s26.629-132.667 74.98-181.02c48.353-48.351 112.64-74.98 181.02-74.98s132.667 26.629 181.02 74.98c48.351 48.353 74.98 112.64 74.98 181.02s-26.629 132.667-74.98 181.02c-48.353 48.351-112.64 74.98-181.02 74.98zm0-472c-119.103 0-216 96.897-216 216s96.897 216 216 216 216-96.897 216-216-96.897-216-216-216zm59.992 372h-119.984c-16.304 0-31.382-8.853-39.35-23.103-8.034-14.367-7.698-31.293.896-45.276 14.476-23.55 43.305-51.621 98.446-51.621s83.97 28.071 98.445 51.62c8.595 13.984 8.931 30.91.896 45.277-7.967 14.25-23.045 23.103-39.349 23.103zm-59.992-80c-29.429 0-51.085 10.957-64.367 32.567-1.191 1.937-.691 3.684-.062 4.809.548.98 1.853 2.624 4.437 2.624h119.984c2.584 0 3.889-1.644 4.437-2.624.63-1.125 1.13-2.872-.062-4.81-13.282-21.609-34.938-32.566-64.367-32.566zm-88-72c-33.084 0-60-26.916-60-60s26.916-60 60-60 60 26.916 60 60-26.916 60-60 60zm0-80c-11.028 0-20 8.972-20 20s8.972 20 20 20 20-8.972 20-20-8.972-20-20-20zm176 80c-33.084 0-60-26.916-60-60s26.916-60 60-60 60 26.916 60 60-26.916 60-60 60zm0-80c-11.028 0-20 8.972-20 20s8.972 20 20 20 20-8.972 20-20-8.972-20-20-20z"/></svg>