<?xml version="1.0" encoding="UTF-8" standalone="no"?>
<svg
   xmlns:dc="http://purl.org/dc/elements/1.1/"
   xmlns:cc="http://creativecommons.org/ns#"
   xmlns:rdf="http://www.w3.org/1999/02/22-rdf-syntax-ns#"
   xmlns:svg="http://www.w3.org/2000/svg"
   xmlns="http://www.w3.org/2000/svg"
   xmlns:xlink="http://www.w3.org/1999/xlink"
   xmlns:sodipodi="http://sodipodi.sourceforge.net/DTD/sodipodi-0.dtd"
   xmlns:inkscape="http://www.inkscape.org/namespaces/inkscape"
   height="512pt"
   viewBox="-28 0 512 512.00078"
   width="512pt"
   version="1.1"
   id="svg1093"
   sodipodi:docname="chocolate.svg"
   inkscape:version="1.0.1 (1.0.1+r74)">
  <metadata
     id="metadata1099">
    <rdf:RDF>
      <cc:Work
         rdf:about="">
        <dc:format>image/svg+xml</dc:format>
        <dc:type
           rdf:resource="http://purl.org/dc/dcmitype/StillImage" />
      </cc:Work>
    </rdf:RDF>
  </metadata>
  <defs
     id="defs1097" />
  <sodipodi:namedview
     pagecolor="#ffffff"
     bordercolor="#666666"
     borderopacity="1"
     objecttolerance="10"
     gridtolerance="10"
     guidetolerance="10"
     inkscape:pageopacity="0"
     inkscape:pageshadow="2"
     inkscape:window-width="1316"
     inkscape:window-height="704"
     id="namedview1095"
     showgrid="false"
     inkscape:zoom="0.73221743"
     inkscape:cx="485.74751"
     inkscape:cy="298.03994"
     inkscape:window-x="50"
     inkscape:window-y="27"
     inkscape:window-maximized="1"
     inkscape:current-layer="svg1093" />
  <linearGradient
     id="a">
    <stop
       offset="0"
       stop-color="#8c6239"
       id="stop1001" />
    <stop
       offset="1"
       stop-color="#42210b"
       id="stop1003" />
  </linearGradient>
  <linearGradient
     id="b"
     gradientTransform="matrix(.709873 .709873 -.709873 .709873 228.03545 -106.148292)"
     gradientUnits="userSpaceOnUse"
     x1="111.126"
     x2="567.8276"
     xlink:href="#a"
     y1="111.1276"
     y2="567.8292" />
  <linearGradient
     id="c"
     gradientTransform="matrix(.709873 .709873 -.709873 .709873 228.03545 -106.148292)"
     gradientUnits="userSpaceOnUse"
     x1="151.3506"
     x2="319.3464"
     xlink:href="#a"
     y1="41.4818"
     y2="209.4776" />
  <linearGradient
     id="d"
     gradientTransform="matrix(-.709873 -.709873 .709873 -.709873 228.031836 618.148794)"
     gradientUnits="userSpaceOnUse"
     x1="274.1558"
     x2="374.7218"
     xlink:href="#a"
     y1="384.0296"
     y2="484.5956" />
  <linearGradient
     id="e"
     gradientTransform="matrix(.709873 .709873 -.709873 .709873 228.03545 -106.148292)"
     gradientUnits="userSpaceOnUse"
     x1="276.1553"
     x2="444.1524"
     xlink:href="#a"
     y1="57.625"
     y2="225.6221" />
  <linearGradient
     id="f"
     gradientTransform="matrix(.709873 .709873 -.709873 .709873 228.03545 -106.148292)"
     gradientUnits="userSpaceOnUse"
     x1="357.9904"
     x2="254.3656"
     xlink:href="#a"
     y1="123.3696"
     y2="19.7448" />
  <linearGradient
     id="g"
     gradientTransform="matrix(.709873 .709873 -.709873 .709873 228.03545 -106.148292)"
     gradientUnits="userSpaceOnUse"
     x1="151.3506"
     x2="319.3464"
     xlink:href="#a"
     y1="182.4296"
     y2="350.4254" />
  <linearGradient
     id="h"
     gradientTransform="matrix(-.709873 -.709873 .709873 -.709873 228.031836 618.148794)"
     gradientUnits="userSpaceOnUse"
     x1="274.1558"
     x2="374.7218"
     xlink:href="#a"
     y1="243.0818"
     y2="343.6478" />
  <linearGradient
     id="i"
     gradientTransform="matrix(.709873 .709873 -.709873 .709873 228.03545 -106.148292)"
     gradientUnits="userSpaceOnUse"
     x1="292.2984"
     x2="460.2942"
     xlink:href="#a"
     y1="182.4296"
     y2="350.4254" />
  <linearGradient
     id="j"
     gradientTransform="matrix(-.709873 -.709873 .709873 -.709873 228.031836 618.148794)"
     gradientUnits="userSpaceOnUse"
     x1="133.208"
     x2="233.7739"
     xlink:href="#a"
     y1="243.0818"
     y2="343.6478" />
  <linearGradient
     id="k"
     gradientTransform="matrix(.709873 .709873 -.709873 .709873 228.03545 -106.148292)"
     gradientUnits="userSpaceOnUse"
     x1="151.3506"
     x2="319.3464"
     xlink:href="#a"
     y1="323.3774"
     y2="491.3732" />
  <linearGradient
     id="l"
     gradientTransform="matrix(-.709873 -.709873 .709873 -.709873 228.031836 618.148794)"
     gradientUnits="userSpaceOnUse"
     x1="274.1558"
     x2="374.7218"
     xlink:href="#a"
     y1="102.134"
     y2="202.7" />
  <linearGradient
     id="m"
     gradientTransform="matrix(.709873 .709873 -.709873 .709873 228.03545 -106.148292)"
     gradientUnits="userSpaceOnUse"
     x1="292.2984"
     x2="460.2942"
     xlink:href="#a"
     y1="323.3774"
     y2="491.3732" />
  <linearGradient
     id="n"
     gradientTransform="matrix(-.709873 -.709873 .709873 -.709873 228.031836 618.148794)"
     gradientUnits="userSpaceOnUse"
     x1="133.208"
     x2="233.774"
     xlink:href="#a"
     y1="102.134"
     y2="202.7" />
  <linearGradient
     id="o"
     gradientTransform="matrix(.709873 .709873 -.709873 .709873 228.03545 -106.148292)"
     gradientUnits="userSpaceOnUse"
     x1="259.7514"
     x2="465.5495"
     y1="355.5801"
     y2="355.5801">
    <stop
       offset="0"
       stop-color="#ff4c54"
       id="stop1019"
       style="stop-color:#1ba7b6;stop-opacity:1" />
    <stop
       offset="1"
       stop-color="#be3f45"
       id="stop1027"
       style="stop-color:#0e2d3d;stop-opacity:1" />
  </linearGradient>
  <linearGradient
     id="p">
    <stop
       offset="0"
       stop-color="#be3f45"
       stop-opacity="0"
       id="stop1030" />
    <stop
       offset="1"
       stop-color="#be3f45"
       id="stop1032" />
  </linearGradient>
  <linearGradient
     id="q"
     gradientTransform="matrix(.709873 .709873 -.709873 .709873 228.03545 -106.148292)"
     gradientUnits="userSpaceOnUse"
     x1="310.2957"
     x2="265.8454"
     xlink:href="#p"
     y1="383.1565"
     y2="238.5364" />
  <linearGradient
     id="r"
     gradientTransform="matrix(.709873 .709873 -.709873 .709873 228.03545 -106.148292)"
     gradientUnits="userSpaceOnUse"
     x1="289.8182"
     x2="289.8182"
     y1="367.7938"
     y2="210.6473">
    <stop
       offset="0"
       stop-color="#c3c3c3"
       stop-opacity="0"
       id="stop1036" />
    <stop
       offset=".0516"
       stop-color="#bdbcbc"
       stop-opacity=".05098"
       id="stop1038" />
    <stop
       offset=".3065"
       stop-color="#a39f9d"
       stop-opacity=".305882"
       id="stop1040" />
    <stop
       offset=".5545"
       stop-color="#918b86"
       stop-opacity=".552941"
       id="stop1042" />
    <stop
       offset=".7901"
       stop-color="#867e79"
       stop-opacity=".788235"
       id="stop1044" />
    <stop
       offset="1"
       stop-color="#827a74"
       id="stop1046" />
  </linearGradient>
  <linearGradient
     id="s"
     gradientTransform="matrix(.709873 .709873 -.709873 .709873 228.03545 -106.148292)"
     gradientUnits="userSpaceOnUse"
     x1="274.7768"
     x2="274.7768"
     y1="238.1992"
     y2="298.7691">
    <stop
       offset="0"
       stop-color="#f8ebe1"
       id="stop1049" />
    <stop
       offset="1"
       stop-color="#fbd1a2"
       id="stop1051" />
  </linearGradient>
  <linearGradient
     id="t"
     gradientTransform="matrix(.709873 .709873 -.709873 .709873 228.03545 -106.148292)"
     gradientUnits="userSpaceOnUse"
     x1="274.7768"
     x2="274.7768"
     xlink:href="#p"
     y1="406.2965"
     y2="462.4932" />
  <path
     d="m454.113281 266.863281-241.972656 241.972657c-4.21875 4.21875-11.058594 4.21875-15.277344 0l-193.695312-193.699219c-4.222657-4.21875-4.222657-11.058594 0-15.277344l296.691406-296.695313c4.21875-4.21875 11.058594-4.21875 15.277344 0l109.867187 109.867188c3.566406 3.566406 4.96875 8.835938 3.40625 13.632812-.132812.402344-.253906.808594-.371094 1.214844-1.949218 6.863282-1.601562 14.242188 1.046876 20.921875 2.085937 5.257813 1.003906 11.238281-3.003907 15.234375l-.074219.074219c-.320312.320313-.628906.640625-.933593.960937-15.449219 16.445313-15.136719 42.316407.933593 58.382813 3.976563 3.980469 8.558594 7 13.449219 9.039063l.050781.023437c4.027344 1.679687 7.019532 5.261719 7.726563 9.566406.917969 5.605469 3.316406 11.015625 7.183594 15.609375.003906.007813.011719.015625.019531.023438 2.277344 2.6875 2.167969 6.65625-.324219 9.148437zm0 0"
     fill="url(#b)"
     id="path1055" />
  <path
     d="m295.980469 195.921875-79.957031-79.957031c-5.550782-5.546875-5.550782-14.546875 0-20.097656l79.957031-79.957032c5.546875-5.546875 14.546875-5.546875 20.097656 0l79.957031 79.957032c5.546875 5.550781 5.546875 14.550781 0 20.097656l-79.957031 79.957031c-5.550781 5.550781-14.550781 5.550781-20.097656 0zm0 0"
     fill="url(#c)"
     id="path1057" />
  <path
     d="m312.042969 52.039062 47.863281 47.863282c3.324219 3.320312 3.324219 8.707031 0 12.03125l-47.863281 47.863281c-3.320313 3.320313-8.707031 3.320313-12.03125 0l-47.863281-47.863281c-3.324219-3.324219-3.324219-8.710938 0-12.03125l47.863281-47.863282c3.324219-3.324218 8.710937-3.324218 12.03125 0zm0 0"
     fill="url(#d)"
     id="path1059" />
  <path
     d="m454.417969 257.691406-38.285157 38.285156c-5.550781 5.550782-14.554687 5.550782-20.105468 0l-79.957032-79.957031c-5.546874-5.546875-5.546874-14.542969 0-20.089843l79.964844-79.964844c5.550782-5.550782 14.546875-5.546875 20.09375 0l11.910156 11.914062c-1.949218 6.863282-1.601562 14.242188 1.046876 20.921875 2.085937 5.257813 1.003906 11.238281-3.003907 15.230469l-.074219.078125c-.320312.320313-.628906.640625-.933593.960937-15.449219 16.445313-15.136719 42.316407.933593 58.382813 3.976563 3.980469 8.558594 7 13.449219 9.039063.027344.011718.050781.019531.074219.03125 4.027344 1.675781 6.996094 5.214843 7.699219 9.523437.914062 5.617187 3.3125 11.039063 7.1875 15.644531zm0 0"
     fill="url(#e)"
     id="path1061" />
  <path
     d="m439.457031 232.492188-27.355469 27.359374c-3.320312 3.320313-8.707031 3.320313-12.035156-.007812l-47.859375-47.855469c-3.324219-3.328125-3.324219-8.714843-.003906-12.035156l47.863281-47.863281c3.320313-3.320313 8.707032-3.320313 12.035156.007812l12.972657 12.972656c-15.449219 16.445313-15.136719 42.316407.933593 58.382813 3.980469 3.980469 8.558594 7 13.449219 9.039063zm0 0"
     fill="url(#f)"
     id="path1063" />
  <path
     d="m195.925781 295.976562-79.957031-79.957031c-5.550781-5.546875-5.550781-14.546875 0-20.097656l79.957031-79.957031c5.546875-5.546875 14.546875-5.546875 20.097657 0l79.957031 79.957031c5.546875 5.550781 5.546875 14.550781 0 20.097656l-79.957031 79.957031c-5.550782 5.550782-14.550782 5.550782-20.097657 0zm0 0"
     fill="url(#g)"
     id="path1065" />
  <path
     d="m211.988281 152.09375 47.863281 47.863281c3.324219 3.320313 3.324219 8.707031 0 12.03125l-47.863281 47.863281c-3.320312 3.320313-8.707031 3.320313-12.03125 0l-47.863281-47.863281c-3.320312-3.324219-3.320312-8.710937 0-12.03125l47.863281-47.863281c3.324219-3.324219 8.710938-3.324219 12.03125 0zm0 0"
     fill="url(#h)"
     id="path1067" />
  <path
     d="m295.980469 396.035156-79.957031-79.957031c-5.550782-5.550781-5.550782-14.550781 0-20.101563l79.957031-79.953124c5.546875-5.550782 14.546875-5.550782 20.097656 0l79.957031 79.953124c5.546875 5.550782 5.546875 14.550782 0 20.101563l-79.957031 79.957031c-5.550781 5.546875-14.550781 5.546875-20.097656 0zm0 0"
     fill="url(#i)"
     id="path1069" />
  <path
     d="m312.042969 252.148438 47.863281 47.863281c3.324219 3.324219 3.324219 8.710937 0 12.03125l-47.863281 47.863281c-3.320313 3.320312-8.707031 3.320312-12.03125 0l-47.863281-47.863281c-3.324219-3.324219-3.324219-8.710938 0-12.03125l47.863281-47.863281c3.324219-3.324219 8.710937-3.324219 12.03125 0zm0 0"
     fill="url(#j)"
     id="path1071" />
  <path
     d="m95.871094 396.035156-79.957032-79.957031c-5.550781-5.550781-5.550781-14.550781 0-20.101563l79.957032-79.953124c5.546875-5.550782 14.546875-5.550782 20.097656 0l79.957031 79.953124c5.546875 5.550782 5.546875 14.550782 0 20.101563l-79.957031 79.957031c-5.550781 5.546875-14.550781 5.546875-20.097656 0zm0 0"
     fill="url(#k)"
     id="path1073" />
  <path
     d="m111.933594 252.148438 47.863281 47.863281c3.324219 3.324219 3.324219 8.710937 0 12.03125l-47.863281 47.863281c-3.320313 3.320312-8.707032 3.320312-12.03125 0l-47.863282-47.863281c-3.320312-3.324219-3.320312-8.710938 0-12.03125l47.863282-47.863281c3.324218-3.324219 8.707031-3.324219 12.03125 0zm0 0"
     fill="url(#l)"
     id="path1075" />
  <path
     d="m195.925781 496.089844-79.957031-79.957032c-5.550781-5.550781-5.550781-14.550781 0-20.097656l79.957031-79.957031c5.546875-5.550781 14.546875-5.550781 20.097657 0l79.957031 79.957031c5.546875 5.546875 5.546875 14.546875 0 20.097656l-79.957031 79.957032c-5.550782 5.546875-14.550782 5.546875-20.097657 0zm0 0"
     fill="url(#m)"
     id="path1077" />
  <path
     d="m211.988281 352.203125 47.863281 47.863281c3.324219 3.324219 3.324219 8.710938 0 12.03125l-47.863281 47.867188c-3.320312 3.320312-8.707031 3.320312-12.03125 0l-47.863281-47.867188c-3.320312-3.320312-3.320312-8.707031 0-12.03125l47.863281-47.863281c3.324219-3.324219 8.710938-3.324219 12.03125 0zm0 0"
     fill="url(#n)"
     id="path1079" />
  <path
     d="m196.867188 508.835938-193.703126-193.703126c-4.21875-4.21875-4.21875-11.058593 0-15.277343l133.679688-133.679688 208.980469 208.980469-133.679688 133.679688c-4.21875 4.21875-11.058593 4.21875-15.277343 0zm0 0"
     fill="url(#o)"
     id="path1081" />
  <path
     d="m214.007812 252.65625h-150.328124l-14.929688 14.929688h175.398438l83.628906 83.628906h-259.214844l14.914062 14.910156h264zm0 0"
     fill="#fff"
     id="path1085"
     style="fill:#ff4e6f;fill-opacity:1;opacity:1;stroke-width:0;stroke-miterlimit:4;stroke-dasharray:none" />
  <path
     d="m331.679688 395.109375-214.789063-214.789063c-4.46875-4.472656-4.46875-11.71875 0-16.1875l16.808594-16.8125c4.472656-4.46875 11.71875-4.46875 16.1875 0l214.792969 214.792969c4.46875 4.46875 4.46875 11.714844 0 16.1875l-16.8125 16.808594c-4.46875 4.472656-11.714844 4.472656-16.1875 0zm0 0"
     fill="url(#s)"
     id="path1089" />
</svg>
